# xmcd CD database file
#
# Track frame offsets:
#	182
#	28402
#	34092
#	52427
#	55947
#	90912
#	96257
#	106820
#	125272
#	136650
#	160237
#	169912
#	209192
#	213862
#	243562
#	244715
#	254147
#	257252
#
# Disc length: 3559 seconds
#
# Revision: 2
# Processed by: cddbd v1.5.2PL0 Copyright (c) Steve Scherf et al.
# Submitted via: CDex 1.70beta2
#
DISCID=060de512
DTITLE=Johann Sebastian Bach - Das Kantatenwerk Vol. 45 (2/2)
DYEAR=1900
DGENRE=
TTITLE0=BWV 198 - La , F rstin, la  noch einen Strahl
TTITLE1=BWV 198 - Dein Sachsen, dein best rztes Mei en
TTITLE2=BWV 198 - Verstummt, verstummt, ihr holden Saiten
TTITLE3=BWV 198 - Der Glocken bebendes Get n
TTITLE4=BWV 198 - Wie starb die Heldin so vergn gt
TTITLE5=BWV 198 - Ihr Leben lie  die Kunst zu sterben
TTITLE6=BWV 198 - An dir, du Vorbild gro er Frauen
TTITLE7=BWV 198 - Der Ewigkeit saphirnes Haus
TTITLE8=BWV 198 - Was Wunder ist's?
TTITLE9=BWV 198 - Doch K nigin! Du stirbest nicht
TTITLE10=BWV 199 - Mein Herze schwimmt im Blut
TTITLE11=BWV 199 - Stumme Seufzer, stille Klagen
TTITLE12=BWV 199 - Doch Gott mu  mir gn dig sein
TTITLE13=BWV 199 - Tief geb ckt und voller Reue
TTITLE14=BWV 199 - Auf diese Schmerrzenreu
TTITLE15=BWV 199 - Ich, dein betr btes Kind
TTITLE16=BWV 199 - Ich lege mich in diese Wunde
TTITLE17=BWV 199 - Wie freudig ist mein Herz
EXTD=Soli\nKanbenchor Hannover - Collegium Vocale Gent\nLeonhardt-Consort\ndirigent: Gustav Leonhardt\nT lzer Knabenchor\nConcentus Musicus Wien\ndirigent: Nikolaus Harnoncourt
EXTT0=Begrafenisode
EXTT1=
EXTT2=
EXTT3=
EXTT4=
EXTT5=
EXTT6=
EXTT7=
EXTT8=
EXTT9=
EXTT10=Trinitas 11
EXTT11=
EXTT12=
EXTT13=
EXTT14=
EXTT15=
EXTT16=
EXTT17=
PLAYORDER=
